<mxfile host="app.diagrams.net" agent="Mozilla/5.0 (Windows NT 10.0; Win64; x64) AppleWebKit/537.36 (KHTML, like Gecko) Chrome/131.0.0.0 Safari/537.36" version="24.8.6">
  <diagram name="Page-1" id="tTcpcrQR4ff2CmqY89ul">
    <mxGraphModel dx="1900" dy="522" grid="1" gridSize="10" guides="1" tooltips="1" connect="1" arrows="1" fold="1" page="1" pageScale="1" pageWidth="850" pageHeight="1100" math="0" shadow="0">
      <root>
        <mxCell id="0" />
        <mxCell id="1" parent="0" />
        <mxCell id="ET2M5edb6w6zrmnzQZTf-15" style="edgeStyle=orthogonalEdgeStyle;rounded=0;orthogonalLoop=1;jettySize=auto;html=1;exitX=0.5;exitY=1;exitDx=0;exitDy=0;entryX=0.5;entryY=0;entryDx=0;entryDy=0;" edge="1" parent="1" source="ET2M5edb6w6zrmnzQZTf-11" target="ET2M5edb6w6zrmnzQZTf-12">
          <mxGeometry relative="1" as="geometry" />
        </mxCell>
        <mxCell id="ET2M5edb6w6zrmnzQZTf-11" value="bắt đầu" style="ellipse;whiteSpace=wrap;html=1;fontStyle=1" vertex="1" parent="1">
          <mxGeometry x="-20" y="10" width="120" height="80" as="geometry" />
        </mxCell>
        <mxCell id="ET2M5edb6w6zrmnzQZTf-92" value="" style="edgeStyle=orthogonalEdgeStyle;rounded=0;orthogonalLoop=1;jettySize=auto;html=1;" edge="1" parent="1" source="ET2M5edb6w6zrmnzQZTf-12" target="ET2M5edb6w6zrmnzQZTf-17">
          <mxGeometry relative="1" as="geometry" />
        </mxCell>
        <mxCell id="ET2M5edb6w6zrmnzQZTf-12" value="Nhập a.b" style="rounded=0;whiteSpace=wrap;html=1;" vertex="1" parent="1">
          <mxGeometry x="-20" y="120" width="120" height="60" as="geometry" />
        </mxCell>
        <mxCell id="ET2M5edb6w6zrmnzQZTf-19" style="edgeStyle=orthogonalEdgeStyle;rounded=0;orthogonalLoop=1;jettySize=auto;html=1;exitX=1;exitY=0.5;exitDx=0;exitDy=0;" edge="1" parent="1" source="ET2M5edb6w6zrmnzQZTf-17" target="ET2M5edb6w6zrmnzQZTf-20">
          <mxGeometry relative="1" as="geometry">
            <mxPoint x="170" y="320" as="targetPoint" />
          </mxGeometry>
        </mxCell>
        <mxCell id="ET2M5edb6w6zrmnzQZTf-93" value="Đúng" style="edgeLabel;html=1;align=center;verticalAlign=middle;resizable=0;points=[];" vertex="1" connectable="0" parent="ET2M5edb6w6zrmnzQZTf-19">
          <mxGeometry x="-0.044" relative="1" as="geometry">
            <mxPoint y="-10" as="offset" />
          </mxGeometry>
        </mxCell>
        <mxCell id="ET2M5edb6w6zrmnzQZTf-28" style="edgeStyle=orthogonalEdgeStyle;rounded=0;orthogonalLoop=1;jettySize=auto;html=1;exitX=0;exitY=0.5;exitDx=0;exitDy=0;" edge="1" parent="1" source="ET2M5edb6w6zrmnzQZTf-17">
          <mxGeometry relative="1" as="geometry">
            <mxPoint x="-80" y="300" as="targetPoint" />
          </mxGeometry>
        </mxCell>
        <mxCell id="ET2M5edb6w6zrmnzQZTf-95" value="Sai" style="edgeLabel;html=1;align=center;verticalAlign=middle;resizable=0;points=[];" vertex="1" connectable="0" parent="ET2M5edb6w6zrmnzQZTf-28">
          <mxGeometry x="-0.1687" y="-3" relative="1" as="geometry">
            <mxPoint x="-3" y="-8" as="offset" />
          </mxGeometry>
        </mxCell>
        <mxCell id="ET2M5edb6w6zrmnzQZTf-17" value="a=b" style="rhombus;whiteSpace=wrap;html=1;" vertex="1" parent="1">
          <mxGeometry x="-40" y="210" width="160" height="80" as="geometry" />
        </mxCell>
        <mxCell id="ET2M5edb6w6zrmnzQZTf-77" style="edgeStyle=orthogonalEdgeStyle;rounded=0;orthogonalLoop=1;jettySize=auto;html=1;endArrow=none;endFill=0;" edge="1" parent="1" source="ET2M5edb6w6zrmnzQZTf-20">
          <mxGeometry relative="1" as="geometry">
            <mxPoint x="40" y="550" as="targetPoint" />
            <Array as="points">
              <mxPoint x="170" y="510" />
              <mxPoint x="41" y="510" />
            </Array>
          </mxGeometry>
        </mxCell>
        <mxCell id="ET2M5edb6w6zrmnzQZTf-20" value="Hai số bằng nhau" style="shape=parallelogram;perimeter=parallelogramPerimeter;whiteSpace=wrap;html=1;fixedSize=1;" vertex="1" parent="1">
          <mxGeometry x="110" y="300" width="120" height="60" as="geometry" />
        </mxCell>
        <mxCell id="ET2M5edb6w6zrmnzQZTf-73" style="edgeStyle=orthogonalEdgeStyle;rounded=0;orthogonalLoop=1;jettySize=auto;html=1;exitX=0;exitY=0.5;exitDx=0;exitDy=0;entryX=0.5;entryY=0;entryDx=0;entryDy=0;" edge="1" parent="1" source="ET2M5edb6w6zrmnzQZTf-32" target="ET2M5edb6w6zrmnzQZTf-39">
          <mxGeometry relative="1" as="geometry" />
        </mxCell>
        <mxCell id="ET2M5edb6w6zrmnzQZTf-96" value="Sai" style="edgeLabel;html=1;align=center;verticalAlign=middle;resizable=0;points=[];" vertex="1" connectable="0" parent="ET2M5edb6w6zrmnzQZTf-73">
          <mxGeometry x="0.0914" y="-1" relative="1" as="geometry">
            <mxPoint x="-2" y="-9" as="offset" />
          </mxGeometry>
        </mxCell>
        <mxCell id="ET2M5edb6w6zrmnzQZTf-74" style="edgeStyle=orthogonalEdgeStyle;rounded=0;orthogonalLoop=1;jettySize=auto;html=1;entryX=0.5;entryY=0;entryDx=0;entryDy=0;" edge="1" parent="1" source="ET2M5edb6w6zrmnzQZTf-32" target="ET2M5edb6w6zrmnzQZTf-37">
          <mxGeometry relative="1" as="geometry">
            <Array as="points">
              <mxPoint x="40" y="340" />
            </Array>
          </mxGeometry>
        </mxCell>
        <mxCell id="ET2M5edb6w6zrmnzQZTf-97" value="Đúng" style="edgeLabel;html=1;align=center;verticalAlign=middle;resizable=0;points=[];" vertex="1" connectable="0" parent="ET2M5edb6w6zrmnzQZTf-74">
          <mxGeometry x="0.1429" y="2" relative="1" as="geometry">
            <mxPoint x="-1" y="-11" as="offset" />
          </mxGeometry>
        </mxCell>
        <mxCell id="ET2M5edb6w6zrmnzQZTf-32" value="a&amp;gt;b" style="rhombus;whiteSpace=wrap;html=1;fontStyle=1" vertex="1" parent="1">
          <mxGeometry x="-160" y="300" width="160" height="80" as="geometry" />
        </mxCell>
        <mxCell id="ET2M5edb6w6zrmnzQZTf-67" style="edgeStyle=orthogonalEdgeStyle;rounded=0;orthogonalLoop=1;jettySize=auto;html=1;endArrow=none;endFill=0;" edge="1" parent="1">
          <mxGeometry relative="1" as="geometry">
            <mxPoint x="-80" y="500" as="targetPoint" />
            <mxPoint x="40" y="400" as="sourcePoint" />
            <Array as="points">
              <mxPoint x="40" y="450" />
              <mxPoint x="-79" y="450" />
            </Array>
          </mxGeometry>
        </mxCell>
        <mxCell id="ET2M5edb6w6zrmnzQZTf-37" value="Thông báo số lớn hơn là a" style="shape=parallelogram;perimeter=parallelogramPerimeter;whiteSpace=wrap;html=1;fixedSize=1;fontStyle=1" vertex="1" parent="1">
          <mxGeometry x="-20" y="370" width="120" height="60" as="geometry" />
        </mxCell>
        <mxCell id="ET2M5edb6w6zrmnzQZTf-89" style="edgeStyle=orthogonalEdgeStyle;rounded=0;orthogonalLoop=1;jettySize=auto;html=1;endArrow=none;endFill=0;entryX=0.5;entryY=0;entryDx=0;entryDy=0;" edge="1" parent="1" source="ET2M5edb6w6zrmnzQZTf-39" target="ET2M5edb6w6zrmnzQZTf-85">
          <mxGeometry relative="1" as="geometry">
            <mxPoint x="-80" y="510" as="targetPoint" />
            <Array as="points">
              <mxPoint x="-200" y="450" />
              <mxPoint x="-79" y="450" />
              <mxPoint x="-79" y="510" />
              <mxPoint x="40" y="510" />
            </Array>
          </mxGeometry>
        </mxCell>
        <mxCell id="ET2M5edb6w6zrmnzQZTf-39" value="Thông báo số lớn hơn là b" style="shape=parallelogram;perimeter=parallelogramPerimeter;whiteSpace=wrap;html=1;fixedSize=1;fontStyle=1" vertex="1" parent="1">
          <mxGeometry x="-260" y="370" width="120" height="60" as="geometry" />
        </mxCell>
        <mxCell id="ET2M5edb6w6zrmnzQZTf-85" value="Kết thúc" style="ellipse;whiteSpace=wrap;html=1;fontStyle=1" vertex="1" parent="1">
          <mxGeometry x="-20" y="550" width="120" height="80" as="geometry" />
        </mxCell>
      </root>
    </mxGraphModel>
  </diagram>
</mxfile>
